<svg width="1037" height="334" viewBox="0 0 1037 334" fill="none" xmlns="http://www.w3.org/2000/svg">
<path d="M155.391 69.0781C158.578 69.0781 160.828 69.8281 162.141 71.3281C163.547 72.7344 164.25 75.1719 164.25 78.6406C164.25 82.1094 163.547 84.5937 162.141 86.0937C160.828 87.5 158.578 88.2031 155.391 88.2031H148.359L152.016 216.875H159.609C162.797 216.875 165.047 217.625 166.359 219.125C167.766 220.531 168.469 222.969 168.469 226.437C168.469 229.906 167.766 232.391 166.359 233.891C165.047 235.297 162.797 236 159.609 236H115.453C112.266 236 109.969 235.297 108.562 233.891C107.25 232.391 106.594 229.906 106.594 226.437C106.594 222.969 107.25 220.531 108.562 219.125C109.969 217.625 112.266 216.875 115.453 216.875H131.062L127.969 101.703L99.2812 181.859C98.0625 185.141 96.4219 187.484 94.3594 188.891C92.3906 190.297 89.7187 191 86.3437 191C82.9687 191 80.25 190.297 78.1875 188.891C76.2187 187.484 74.625 185.141 73.4062 181.859L44.5781 101.703L41.625 216.875H57.2344C60.4219 216.875 62.6719 217.625 63.9844 219.125C65.3906 220.531 66.0937 222.969 66.0937 226.437C66.0937 229.906 65.3906 232.391 63.9844 233.891C62.6719 235.297 60.4219 236 57.2344 236H13.0781C9.89062 236 7.59375 235.297 6.1875 233.891C4.875 232.391 4.21875 229.906 4.21875 226.437C4.21875 222.969 4.875 220.531 6.1875 219.125C7.59375 217.625 9.89062 216.875 13.0781 216.875H20.6719L24.1875 88.2031H17.2969C14.1094 88.2031 11.8125 87.5 10.4062 86.0937C9.09375 84.5937 8.4375 82.1094 8.4375 78.6406C8.4375 75.1719 9.09375 72.7344 10.4062 71.3281C11.8125 69.8281 14.1094 69.0781 17.2969 69.0781H46.9687C49.2187 69.0781 51 69.4531 52.3125 70.2031C53.625 70.9531 54.5625 72.125 55.125 73.7187L86.3437 159.359L117.422 73.7187C118.453 70.625 121.219 69.0781 125.719 69.0781H155.391ZM259.031 102.969C271.875 102.969 283.453 105.875 293.766 111.687C304.078 117.5 312.141 125.609 317.953 136.016C323.859 146.328 326.812 158 326.812 171.031C326.812 184.062 323.859 195.781 317.953 206.187C312.141 216.5 304.078 224.562 293.766 230.375C283.453 236.187 271.875 239.094 259.031 239.094C246.187 239.094 234.609 236.187 224.297 230.375C213.984 224.562 205.875 216.5 199.969 206.187C194.156 195.781 191.25 184.062 191.25 171.031C191.25 158 194.156 146.328 199.969 136.016C205.875 125.609 213.984 117.5 224.297 111.687C234.609 105.875 246.187 102.969 259.031 102.969ZM259.031 123.781C249.937 123.781 241.922 125.797 234.984 129.828C228.141 133.766 222.844 139.344 219.094 146.562C215.344 153.687 213.469 161.844 213.469 171.031C213.469 180.219 215.344 188.422 219.094 195.641C222.844 202.766 228.141 208.344 234.984 212.375C241.922 216.312 249.937 218.281 259.031 218.281C268.125 218.281 276.094 216.312 282.937 212.375C289.875 208.344 295.219 202.766 298.969 195.641C302.719 188.422 304.594 180.219 304.594 171.031C304.594 161.844 302.719 153.687 298.969 146.562C295.219 139.344 289.875 133.766 282.937 129.828C276.094 125.797 268.125 123.781 259.031 123.781ZM609.469 106.062C612.656 106.062 614.906 106.812 616.219 108.312C617.625 109.719 618.328 112.156 618.328 115.625V216.875H663.469C666.656 216.875 668.906 217.625 670.219 219.125C671.625 220.531 672.328 222.969 672.328 226.437C672.328 229.906 671.625 232.391 670.219 233.891C668.906 235.297 666.656 236 663.469 236H553.219C550.031 236 547.734 235.297 546.328 233.891C545.016 232.391 544.359 229.906 544.359 226.437C544.359 222.969 545.016 220.531 546.328 219.125C547.734 217.625 550.031 216.875 553.219 216.875H597.234V125.187H561.656C558.469 125.187 556.172 124.484 554.766 123.078C553.453 121.578 552.797 119.094 552.797 115.625C552.797 112.156 553.453 109.719 554.766 108.312C556.172 106.812 558.469 106.062 561.656 106.062H609.469ZM604.969 44.3281C610.125 44.3281 613.641 45.0312 615.516 46.4375C617.391 47.75 618.328 50.0937 618.328 53.4687V71.75C618.328 75.125 617.391 77.5156 615.516 78.9219C613.641 80.2344 610.125 80.8906 604.969 80.8906C599.812 80.8906 596.297 80.2344 594.422 78.9219C592.547 77.5156 591.609 75.125 591.609 71.75V53.4687C591.609 50.0937 592.547 47.75 594.422 46.4375C596.297 45.0312 599.812 44.3281 604.969 44.3281ZM778.359 102.969C791.953 102.969 803.531 105.734 813.094 111.266C822.75 116.703 830.156 124.297 835.312 134.047C840.469 143.703 843.422 154.859 844.172 167.516C844.172 170.703 843.469 172.953 842.062 174.266C840.75 175.578 838.5 176.234 835.312 176.234H733.5C734.156 190.203 738.281 200.797 745.875 208.016C753.562 215.141 764.391 218.703 778.359 218.703C786.984 218.703 795.516 217.625 803.953 215.469C812.391 213.219 819.797 210.266 826.172 206.609C827.766 205.766 829.219 205.344 830.531 205.344C833.812 205.344 836.484 207.828 838.547 212.797C839.391 214.766 839.812 216.547 839.812 218.141C839.812 221.891 837.75 224.797 833.625 226.859C826.406 230.516 817.875 233.469 808.031 235.719C798.187 237.969 788.297 239.094 778.359 239.094C764.203 239.094 752.109 236.375 742.078 230.937C732.047 225.5 724.406 217.672 719.156 207.453C713.906 197.234 711.281 185.094 711.281 171.031C711.281 157.625 714.141 145.766 719.859 135.453C725.578 125.141 733.5 117.172 743.625 111.547C753.75 105.828 765.328 102.969 778.359 102.969ZM778.359 123.359C766.828 123.359 757.266 126.312 749.672 132.219C742.172 138.031 737.25 146.141 734.906 156.547H820.828C818.859 145.766 814.312 137.562 807.187 131.937C800.156 126.219 790.547 123.359 778.359 123.359ZM951.047 102.969C964.641 102.969 976.219 105.734 985.781 111.266C995.437 116.703 1002.84 124.297 1008 134.047C1013.16 143.703 1016.11 154.859 1016.86 167.516C1016.86 170.703 1016.16 172.953 1014.75 174.266C1013.44 175.578 1011.19 176.234 1008 176.234H906.187C906.844 190.203 910.969 200.797 918.562 208.016C926.25 215.141 937.078 218.703 951.047 218.703C959.672 218.703 968.203 217.625 976.641 215.469C985.078 213.219 992.484 210.266 998.859 206.609C1000.45 205.766 1001.91 205.344 1003.22 205.344C1006.5 205.344 1009.17 207.828 1011.23 212.797C1012.08 214.766 1012.5 216.547 1012.5 218.141C1012.5 221.891 1010.44 224.797 1006.31 226.859C999.094 230.516 990.562 233.469 980.719 235.719C970.875 237.969 960.984 239.094 951.047 239.094C936.891 239.094 924.797 236.375 914.766 230.937C904.734 225.5 897.094 217.672 891.844 207.453C886.594 197.234 883.969 185.094 883.969 171.031C883.969 157.625 886.828 145.766 892.547 135.453C898.266 125.141 906.187 117.172 916.312 111.547C926.437 105.828 938.016 102.969 951.047 102.969ZM951.047 123.359C939.516 123.359 929.953 126.312 922.359 132.219C914.859 138.031 909.937 146.141 907.594 156.547H993.516C991.547 145.766 987 137.562 979.875 131.937C972.844 126.219 963.234 123.359 951.047 123.359Z" fill="#FF0000"/>
<path d="M362.008 228.49C358.82 228.501 356.568 227.759 355.25 226.263C353.839 224.862 353.127 222.427 353.115 218.958C353.102 215.49 353.797 213.003 355.198 211.498C356.505 210.087 358.753 209.376 361.94 209.365L370.8 209.333L415.851 104.408C417.153 101.216 419.113 98.9122 421.733 97.4967C424.259 95.9878 427.819 95.2252 432.413 95.209C436.913 95.1931 440.431 95.9307 442.967 97.4218C445.41 98.8194 447.34 101.109 448.757 104.292L494.127 208.898L502.846 208.867C506.033 208.856 508.332 209.551 509.744 210.952C511.061 212.448 511.726 214.93 511.739 218.398C511.751 221.867 511.103 224.307 509.796 225.718C508.395 227.223 506.101 227.981 502.913 227.992L453.132 228.168C449.945 228.179 447.692 227.437 446.374 225.942C444.963 224.541 444.251 222.106 444.239 218.637C444.227 215.168 444.921 212.681 446.322 211.176C447.63 209.765 449.877 209.054 453.065 209.043L471.065 208.98L432.35 117.428L393.862 209.252L406.096 209.209C409.284 209.198 411.583 209.893 412.994 211.294C414.312 212.789 414.977 215.271 414.989 218.74C415.002 222.209 414.354 224.649 413.046 226.059C411.645 227.564 409.351 228.323 406.164 228.334L362.008 228.49Z" fill="#FF0000"/>
</svg>
